<?xml version="1.0" standalone="no"?>
<!DOCTYPE svg PUBLIC "-//W3C//DTD SVG 20010904//EN"
 "http://www.w3.org/TR/2001/REC-SVG-20010904/DTD/svg10.dtd">
<svg version="1.0" xmlns="http://www.w3.org/2000/svg"
 width="256.000000pt" height="256.000000pt" viewBox="0 0 256.000000 256.000000"
 preserveAspectRatio="xMidYMid meet">
<metadata>
Created by potrace 1.16, written by Peter Selinger 2001-2019
</metadata>
<g transform="translate(0.000000,256.000000) scale(0.100000,-0.100000)"
fill="#000000" stroke="none">
<path d="M1165 2481 c-38 -42 -62 -70 -52 -62 9 7 17 9 17 3 0 -13 -25 -33
-32 -26 -3 3 -9 0 -14 -7 -5 -8 -3 -10 6 -4 10 6 11 4 6 -11 -5 -10 -11 -27
-13 -36 -3 -10 -8 -18 -12 -18 -12 0 -62 56 -55 62 3 4 -8 14 -25 22 -43 23
-53 19 -11 -4 63 -35 22 -21 -81 27 -77 36 -105 44 -117 37 -22 -15 -84 -187
-89 -251 l-5 -53 -26 14 c-16 8 -83 17 -157 22 -108 7 -122 10 -80 15 l50 7
-50 -2 c-37 -1 -50 -5 -50 -16 0 -8 -7 -15 -15 -15 -11 0 -15 -13 -16 -50 l-2
-50 7 50 c6 42 8 29 15 -80 5 -74 14 -142 22 -157 18 -36 19 -35 -16 -30 -16
2 -49 -3 -72 -11 -24 -9 -80 -29 -125 -45 -83 -29 -112 -33 -50 -7 17 8 25 14
17 15 -9 0 -25 -7 -37 -15 -17 -12 -20 -20 -13 -47 13 -57 96 -222 124 -247
l26 -25 -31 -13 c-18 -7 -34 -11 -37 -8 -3 3 -1 5 4 5 6 0 19 7 30 15 16 14
14 14 -14 0 -19 -9 -31 -19 -28 -22 7 -8 -13 -33 -26 -33 -6 0 -4 8 3 18 8 9
-20 -14 -62 -53 -75 -68 -76 -71 -75 -115 1 -43 5 -49 76 -115 41 -39 69 -62
61 -53 -8 11 -9 18 -3 18 11 0 27 -19 27 -34 0 -5 15 -10 33 -11 18 -2 36 -6
39 -9 9 -8 -48 -67 -58 -60 -5 2 -15 -9 -24 -25 -22 -43 -18 -53 5 -11 36 65
20 18 -27 -82 -36 -76 -44 -104 -37 -116 15 -22 187 -84 251 -89 l53 -5 -14
-26 c-8 -16 -17 -83 -22 -157 -7 -108 -10 -122 -15 -80 l-7 50 2 -50 c1 -37 5
-50 16 -50 8 0 15 -7 15 -15 0 -11 13 -15 50 -16 l50 -2 -50 7 c-42 6 -29 8
80 15 74 5 142 14 157 22 36 18 35 19 30 -16 -2 -16 3 -49 11 -72 9 -24 29
-80 45 -125 29 -83 33 -112 7 -50 -8 17 -14 25 -15 17 0 -9 7 -25 15 -37 12
-17 20 -20 47 -13 57 13 222 96 247 124 l25 26 13 -31 c7 -18 11 -34 8 -37 -3
-3 -5 -1 -5 4 0 6 -7 19 -15 30 -14 16 -14 14 0 -14 9 -19 19 -31 22 -28 8 7
33 -13 33 -26 0 -6 -8 -4 -17 3 -10 8 13 -20 52 -61 66 -71 72 -75 115 -76 44
-1 47 0 115 75 39 42 62 70 53 62 -10 -7 -18 -9 -18 -3 0 11 32 40 36 32 1 -3
6 -1 11 4 5 6 2 6 -6 1 -11 -6 -13 -4 -7 11 5 10 11 27 13 37 3 9 8 17 12 17
12 0 62 -56 55 -62 -3 -4 8 -14 25 -22 43 -23 53 -19 11 4 -65 36 -18 20 82
-27 76 -36 104 -44 116 -37 22 15 84 187 89 251 l5 53 26 -14 c15 -8 84 -17
157 -22 109 -7 122 -9 80 -15 l-50 -7 50 2 c37 1 50 5 50 16 0 8 7 15 15 15
11 0 15 13 16 50 l2 50 -7 -50 c-5 -42 -8 -28 -15 80 -5 75 -14 141 -22 157
-18 35 -19 35 19 30 20 -2 76 13 152 40 95 34 121 48 123 63 4 29 -90 225
-122 254 l-26 25 31 13 c39 16 42 16 33 1 -4 -8 -3 -10 2 -5 5 5 9 14 9 20 0
5 6 12 14 15 10 3 11 0 5 -9 -4 -8 26 18 68 56 74 68 75 71 74 115 -1 43 -5
49 -76 115 -41 39 -69 62 -61 53 7 -10 9 -18 3 -18 -11 0 -30 21 -31 34 0 5
-15 10 -31 11 -17 2 -34 6 -37 9 -9 8 48 67 58 60 5 -2 15 9 24 25 22 43 18
53 -5 11 -35 -63 -21 -22 27 81 36 77 44 105 37 117 -15 22 -187 84 -251 89
l-53 5 14 26 c8 16 17 83 22 157 7 108 10 122 15 80 l7 -50 -2 50 c-1 37 -5
50 -16 50 -8 0 -15 7 -15 15 0 11 -13 15 -50 16 l-50 2 50 -7 c42 -5 28 -8
-80 -15 -75 -5 -141 -14 -157 -22 -36 -18 -35 -19 -30 19 2 20 -8 64 -26 113
-16 43 -36 97 -44 119 -12 34 -19 41 -50 46 -26 4 -47 -1 -79 -17 -24 -13 -40
-23 -36 -24 4 0 26 9 47 20 22 11 40 18 40 15 0 -4 -42 -26 -92 -49 -51 -24
-104 -55 -117 -70 l-24 -26 -18 41 c-10 22 -46 69 -79 103 -57 59 -75 86 -47
70 9 -6 9 -5 -1 8 -8 10 -29 15 -60 15 -46 0 -49 -2 -117 -76z m178 -100 c32
-35 57 -69 57 -76 0 -9 -31 -12 -120 -12 -106 0 -121 2 -118 16 2 9 8 16 14
16 6 0 32 23 58 50 l46 50 52 -55 c28 -30 42 -41 30 -25 -11 17 -34 44 -52 60
l-32 30 -49 -53 c-27 -29 -49 -50 -49 -47 0 10 94 114 101 112 3 -1 31 -31 62
-66z m-356 -104 l22 -20 -67 -24 c-37 -14 -77 -26 -89 -26 -12 -1 -19 -4 -17
-6 4 -4 -51 -41 -61 -41 -13 0 3 60 46 177 l8 22 68 -31 c37 -17 78 -40 90
-51z m766 6 c15 -43 27 -88 27 -100 0 -22 -1 -22 -29 -5 -16 9 -27 21 -24 26
3 5 1 6 -6 2 -6 -4 -39 4 -74 17 -34 13 -70 27 -81 31 -16 5 -16 9 -5 22 11
14 139 80 159 83 3 1 18 -34 33 -76z m-219 -118 c309 -91 537 -319 632 -631
25 -82 28 -103 28 -254 0 -151 -3 -172 -28 -254 -31 -104 -102 -246 -147 -296
-17 -19 -26 -27 -19 -18 17 25 7 22 -16 -4 -10 -12 -13 -18 -6 -14 61 36 -89
-116 -169 -171 -71 -49 -182 -101 -276 -130 -80 -24 -102 -27 -253 -27 -151 0
-172 3 -254 28 -312 95 -537 320 -632 632 -25 82 -28 103 -28 254 0 151 3 172
28 254 105 346 381 592 733 656 26 5 109 7 183 5 110 -2 152 -8 224 -30z
m-906 -71 l33 -5 -92 -91 c-102 -101 -109 -102 -109 -7 0 31 -3 70 -6 87 l-6
31 73 -5 c41 -3 89 -7 107 -10z m1476 -56 c-3 -40 -7 -88 -10 -106 l-5 -33
-90 91 c-50 50 -88 94 -84 98 4 4 41 10 83 13 42 3 85 6 94 7 15 2 16 -7 12
-70z m148 -269 c35 -12 73 -26 85 -30 l22 -8 -31 -68 c-17 -37 -40 -78 -51
-90 l-20 -22 -24 67 c-14 37 -26 77 -26 89 -1 12 -4 19 -6 17 -4 -4 -41 51
-41 61 0 10 32 4 92 -16z m-1872 -21 c-15 -27 -46 -103 -75 -187 -9 -24 -35 8
-71 88 -19 41 -33 75 -32 76 17 11 150 54 170 54 l27 1 -19 -32z m-113 -468
c0 -66 -2 -120 -4 -120 -20 0 -148 105 -148 121 0 10 128 119 140 119 9 0 12
-31 12 -120z m2056 109 c24 -13 122 -101 122 -110 0 -10 -128 -119 -140 -119
-9 0 -12 31 -12 120 0 66 2 120 4 120 2 0 14 -5 26 -11z m-1970 -536 c1 -12 4
-19 6 -17 4 4 41 -51 41 -61 0 -13 -60 3 -177 46 l-22 8 31 68 c17 37 40 78
51 90 l20 22 24 -67 c14 -37 26 -77 26 -89z m1953 104 c9 -16 13 -35 10 -43
-3 -8 -2 -13 2 -10 8 5 47 -63 40 -69 -15 -10 -155 -55 -173 -55 -24 0 -24 0
-7 29 9 16 21 27 26 24 5 -3 6 -1 2 6 -4 6 4 39 17 74 13 34 27 70 31 81 5 15
9 16 22 5 8 -7 22 -26 30 -42z m-1667 -488 c-8 -5 -39 -9 -70 -9 -31 0 -70 -3
-87 -6 l-31 -6 5 73 c3 41 7 89 10 107 l5 33 91 -92 c69 -69 87 -93 77 -100z
m1455 159 c3 -13 7 -58 10 -100 l4 -77 -71 5 c-40 3 -87 7 -105 10 l-33 5 88
89 c48 49 91 89 95 89 4 1 10 -9 12 -21z m-1261 -272 c-3 -5 -1 -6 6 -2 6 4
39 -4 74 -17 34 -13 70 -27 81 -31 16 -5 16 -9 5 -22 -12 -15 -159 -88 -164
-82 -11 16 -55 155 -55 173 0 24 0 24 29 7 16 -9 27 -21 24 -26z m957 29 c0
-13 -24 -89 -51 -162 l-8 -22 -68 31 c-37 17 -78 40 -90 51 l-22 20 67 24 c37
14 77 26 89 26 12 1 19 4 17 6 -4 5 46 39 59 40 4 1 7 -6 7 -14z m-390 -124
c-1 -20 -118 -160 -124 -149 -1 2 -27 31 -59 66 -31 35 -57 69 -57 76 0 10 28
13 120 13 66 0 120 -2 120 -6z"/>
<path d="M1195 1978 c-33 -4 -71 -6 -85 -4 -14 2 -18 1 -10 -2 8 -2 -15 -15
-50 -28 -36 -13 -71 -22 -78 -19 -7 3 -11 1 -8 -4 4 -5 -20 -24 -51 -41 -32
-18 -93 -68 -135 -111 -60 -62 -87 -99 -123 -172 -60 -122 -76 -190 -77 -313
0 -116 23 -218 72 -315 17 -33 28 -64 25 -69 -3 -5 0 -12 6 -16 8 -4 9 -3 5 4
-4 7 -5 12 -2 12 10 0 77 -100 72 -108 -3 -5 4 -18 17 -28 l22 -19 -20 24
c-16 20 -12 19 28 -9 26 -19 53 -41 60 -50 7 -8 -6 -2 -28 13 l-40 28 34 -30
c18 -16 39 -27 46 -25 7 3 16 0 21 -7 5 -8 3 -10 -6 -4 -9 5 -11 4 -6 -4 4 -6
11 -9 16 -6 4 3 41 -11 82 -30 104 -49 186 -68 299 -67 109 0 215 25 310 72
33 17 64 28 69 25 5 -3 12 0 16 6 5 8 2 10 -7 5 -8 -4 2 5 21 20 212 167 319
410 289 657 -5 43 -21 109 -35 148 -14 38 -22 74 -18 81 4 6 3 8 -4 5 -6 -4
-24 18 -42 50 -18 32 -68 93 -111 135 -62 60 -99 87 -172 123 -50 25 -117 51
-147 59 -42 10 -49 15 -30 17 47 7 -165 4 -225 -3z m-20 -160 c-18 -40 -38
-92 -44 -115 l-12 -43 -37 24 c-20 13 -70 36 -110 51 l-72 28 27 19 c56 38
127 70 197 88 39 10 74 19 78 19 4 1 -8 -32 -27 -71z m362 18 c28 -13 67 -35
86 -48 l36 -24 -94 -43 c-52 -24 -100 -50 -106 -58 -10 -11 -17 1 -36 67 -13
45 -32 98 -43 120 l-19 38 62 -14 c34 -8 85 -26 114 -38z m-190 -203 c5 -46 3
-54 -20 -77 -34 -34 -70 -33 -97 2 -29 36 -23 87 21 187 l33 75 29 -67 c16
-38 31 -91 34 -120z m478 -73 c21 -42 43 -109 59 -182 l6 -27 -76 35 c-42 20
-91 38 -110 41 -19 3 -34 8 -34 10 0 15 23 43 30 38 6 -4 7 1 3 11 -4 12 -3
15 5 10 7 -4 10 -2 7 6 -3 8 5 40 18 72 14 33 27 53 29 45 3 -8 9 -11 13 -6 5
4 3 13 -3 19 -7 7 -12 17 -12 23 0 13 34 -37 65 -95z m-830 59 c108 -45 143
-90 119 -153 -10 -25 -68 -31 -103 -10 -29 17 -82 102 -95 154 l-7 25 16 -25
c9 -14 14 -17 11 -7 -3 9 0 17 7 18 7 0 -1 7 -18 14 -59 27 -2 14 70 -16z
m628 -60 c-16 -41 -33 -74 -39 -74 -5 0 -22 -10 -38 -22 -16 -13 -25 -23 -20
-23 4 0 18 10 31 22 13 12 23 16 23 10 0 -18 -42 -42 -75 -42 -42 0 -55 11
-61 52 -9 51 35 97 129 137 40 16 73 26 75 21 2 -4 -10 -41 -25 -81z m-810 36
c10 -24 15 -50 11 -57 -4 -7 -4 -10 1 -6 9 9 68 -80 60 -91 -2 -5 -18 -11 -35
-14 -17 -4 -64 -22 -105 -41 l-75 -35 6 27 c23 108 89 262 112 262 4 0 15 -20
25 -45z m493 -159 c44 12 44 12 64 -36 14 -31 15 -39 5 -25 -9 11 -18 30 -22
43 -3 12 -10 22 -15 22 -5 0 1 -19 15 -42 13 -24 29 -42 35 -41 6 2 23 -2 37
-7 23 -9 24 -12 14 -31 -11 -21 -9 -58 5 -91 6 -12 0 -21 -23 -32 -38 -20 -50
-20 -25 0 18 14 18 15 -4 4 -12 -6 -20 -15 -17 -20 4 -7 -9 -50 -21 -68 -2 -2
-18 2 -38 9 -27 10 -43 10 -73 1 -29 -9 -39 -9 -45 1 -14 22 -8 31 8 11 14
-18 15 -18 4 4 -6 12 -15 20 -19 17 -10 -5 -29 14 -29 30 0 5 -6 11 -14 13 -9
2 -8 0 2 -7 19 -13 9 -14 -25 -1 -25 10 -25 10 -9 41 15 30 15 70 -1 110 -4
12 1 19 22 25 15 4 34 8 41 9 8 0 18 9 23 20 10 20 10 20 -5 1 -20 -25 -20
-14 -1 24 14 26 17 28 49 18 20 -6 46 -7 62 -2z m-302 -107 c33 -26 34 -62 0
-96 -23 -23 -31 -25 -77 -20 -29 3 -82 18 -120 34 l-67 29 72 31 c40 17 80 34
88 36 34 12 79 6 104 -14z m741 -20 l75 -33 -67 -29 c-38 -16 -91 -31 -120
-34 -46 -5 -54 -3 -77 20 -34 34 -33 70 2 97 36 29 87 23 187 -21z m-909 -175
l63 -17 -24 -41 c-14 -23 -29 -40 -35 -39 -5 2 -7 -3 -4 -10 2 -7 -6 -37 -19
-66 l-24 -54 -22 31 c-33 47 -68 130 -84 199 l-15 61 50 -23 c28 -13 79 -31
114 -41z m1038 4 c-17 -70 -50 -148 -86 -202 l-25 -36 -27 70 c-15 38 -24 75
-20 81 4 7 3 10 -2 6 -5 -3 -19 9 -31 27 l-21 33 76 22 c43 12 93 31 112 41
19 11 36 19 37 20 1 0 -5 -28 -13 -62z m-311 -44 c25 -25 87 -159 87 -186 -1
-7 -7 1 -15 17 -7 17 -14 25 -14 18 -1 -7 -9 -10 -18 -7 -10 3 -7 -2 7 -11
l25 -16 -25 7 c-55 14 -142 68 -157 97 -16 32 -11 92 10 100 33 14 76 6 100
-19z m-451 -6 c18 -30 8 -80 -22 -108 -31 -29 -175 -88 -187 -76 -3 3 1 6 10
6 10 0 17 4 17 9 0 5 3 18 6 28 3 10 -2 7 -10 -7 -24 -40 -19 -15 12 53 37 81
83 121 131 113 19 -3 38 -11 43 -18z m215 -84 c23 -23 25 -31 20 -77 -3 -29
-18 -82 -34 -120 l-29 -67 -33 75 c-44 100 -50 151 -21 188 27 34 63 35 97 1z
m-149 -269 l31 -65 -27 6 c-108 23 -262 89 -262 112 0 4 28 17 63 30 34 12 80
33 102 46 l40 25 11 -44 c7 -24 25 -74 42 -110z m316 126 c25 -15 42 -32 38
-36 -4 -5 -1 -5 6 -1 16 9 103 -25 99 -39 -6 -18 -150 -85 -214 -99 l-62 -14
18 37 c11 20 29 69 41 109 12 39 24 72 26 72 2 0 24 -13 48 -29z"/>
</g>
</svg>
